<svg width="150" height="41" viewBox="0 0 225 62" xmlns="http://www.w3.org/2000/svg" fill="#fff"><title>GitHub</title><path d="M43.473 26.669H24.798a.874.874 0 0 0-.873.873v9.132c0 .479.391.871.873.871h7.286v11.347s-1.637.554-6.158.554c-5.337 0-12.789-1.951-12.789-18.337 0-16.393 7.761-18.549 15.047-18.549 6.306 0 9.023 1.11 10.753 1.644.544.168 1.044-.374 1.044-.856l2.084-8.821a.812.812 0 0 0-.333-.681C41.031 3.345 36.746.948 25.926.948 13.459.948.671 6.251.671 31.748c0 25.508 14.642 29.305 26.978 29.305 10.218 0 16.412-4.363 16.412-4.363.257-.141.283-.499.283-.659V27.542a.873.873 0 0 0-.871-.873M140.473 4.002a.871.871 0 0 0-.869-.877H129.09a.875.875 0 0 0-.871.877l.004 20.32h-16.389V4.002a.873.873 0 0 0-.869-.877h-10.513a.874.874 0 0 0-.869.877v55.033c0 .484.391.879.869.879h10.513c.48 0 .869-.395.869-.879V35.489h16.389l-.03 23.546c0 .484.392.879.871.879h10.54a.876.876 0 0 0 .869-.879V4.002M63.694 11.221c0-3.785-3.034-6.843-6.778-6.843-3.742 0-6.78 3.058-6.78 6.843 0 3.783 3.038 6.853 6.78 6.853 3.744 0 6.778-3.07 6.778-6.853M62.942 47.417V22.02a.873.873 0 0 0-.869-.878H51.592c-.48 0-.912.495-.912.979v36.397c0 1.068.666 1.384 1.53 1.384h9.444c1.035 0 1.288-.506 1.288-1.403V47.417M181.275 21.225h-10.433a.876.876 0 0 0-.869.88v26.976s-2.651 1.939-6.412 1.939c-3.764 0-4.76-1.705-4.76-5.39V22.105a.877.877 0 0 0-.871-.88h-10.587a.874.874 0 0 0-.867.88v25.308c0 10.952 6.095 13.629 14.484 13.629 6.882 0 12.43-3.801 12.43-3.801s.267 2.003.384 2.241a.916.916 0 0 0 .77.473l6.735-.03c.48 0 .871-.391.871-.874l-.004-36.946a.877.877 0 0 0-.871-.88M210.364 19.991c-5.927 0-9.954 2.643-9.954 2.643V4.002a.873.873 0 0 0-.868-.877h-10.546a.872.872 0 0 0-.868.877v55.033c0 .484.388.879.87.879h7.317c.327 0 .577-.171.763-.469.182-.295.443-2.535.443-2.535s4.311 4.083 12.475 4.083c9.582 0 15.076-4.861 15.076-21.829 0-16.958-8.778-19.173-14.708-19.173zm-4.113 31c-3.619-.112-6.074-1.754-6.074-1.754V31.814s2.42-1.485 5.392-1.75c3.758-.338 7.378.797 7.378 9.762 0 9.452-1.633 11.314-6.696 11.165zM92.971 21.138h-7.886l-.011-10.42c0-.395-.205-.592-.661-.592H73.665c-.418 0-.642.184-.642.586v10.766s-5.386 1.301-5.751 1.406a.876.876 0 0 0-.629.841v6.764c0 .488.389.879.871.879h5.509v16.277c0 12.101 8.48 13.289 14.203 13.289 2.616 0 5.744-.841 6.261-1.032.311-.111.492-.435.492-.789l.01-7.452a.889.889 0 0 0-.872-.879c-.46 0-1.636.19-2.846.19-3.876 0-5.186-1.802-5.186-4.136l-.002-15.468h7.888c.481 0 .87-.391.87-.879v-8.475a.872.872 0 0 0-.87-.876"/></svg>