<svg width="172" height="193" viewBox="0 0 172 193" xmlns="http://www.w3.org/2000/svg"><title>umbrella</title><g fill="#6A737D" fill-rule="evenodd"><path d="M85.682.635c.949 0 1.758.33 2.415 1 .67.67 1.012 1.478 1.012 2.427v174.504c0 1.846-.367 3.59-1.088 5.234a13.694 13.694 0 0 1-3.009 4.336 14.565 14.565 0 0 1-4.374 2.946c-1.656.733-3.4 1.1-5.234 1.1-1.846 0-3.59-.367-5.247-1.1a13.88 13.88 0 0 1-4.323-2.946 14.19 14.19 0 0 1-2.959-4.336 12.907 12.907 0 0 1-1.1-5.234v-2.187c0-1.264.215-2.364.62-3.287.417-.923 1.365-1.378 2.82-1.378.947 0 1.668.24 2.136.708.48.48.809 1.05.999 1.72.202.67.265 1.415.24 2.237a72.22 72.22 0 0 0-.038 2.187c0 1.846.67 3.426 2.048 4.766 1.353 1.328 2.958 1.998 4.804 1.998 1.833 0 3.439-.67 4.792-1.998 1.378-1.34 2.06-2.92 2.06-4.766V4.062c0-.949.329-1.758.999-2.428.657-.67 1.48-.999 2.427-.999"/><path d="M82.25 7.494L48.077 89.556a35.847 35.847 0 0 0-10.367-9.76c-4.146-2.566-8.672-3.856-13.628-3.856a24.33 24.33 0 0 0-7.13 1.05 27.795 27.795 0 0 0-6.436 2.857 32.366 32.366 0 0 0-5.613 4.286 35.752 35.752 0 0 0-4.716 5.423c0-7.547.974-14.842 2.908-21.846 1.935-7.016 4.69-13.553 8.281-19.62a84.12 84.12 0 0 1 12.845-16.563 83.255 83.255 0 0 1 16.574-12.844c6.056-3.59 12.605-6.347 19.609-8.294C67.408 8.467 74.69 7.494 82.25 7.494M123.289 89.559L89.103 7.497c7.56 0 14.843.96 21.847 2.895 7.016 1.947 13.578 4.703 19.659 8.293a82.497 82.497 0 0 1 16.625 12.845 82.01 82.01 0 0 1 12.794 16.562c3.565 6.068 6.321 12.604 8.293 19.608 1.96 7.017 2.946 14.299 2.946 21.859a35.678 35.678 0 0 0-10.367-9.76c-4.147-2.58-8.673-3.856-13.628-3.856-4.944 0-9.495 1.277-13.616 3.856a35.678 35.678 0 0 0-10.367 9.76"/><path d="M123.289 89.559c-5.146-4.5-11-7.902-17.573-10.19-6.562-2.288-13.25-3.426-20.039-3.426-6.789 0-13.464 1.138-20.038 3.426-6.561 2.288-12.428 5.69-17.56 10.19 0-7.75.733-15.36 2.237-22.858a113.52 113.52 0 0 1 6.612-21.656A117.917 117.917 0 0 1 67.65 25.158 111.846 111.846 0 0 1 82.251 7.497h6.852a112.626 112.626 0 0 1 14.615 17.661 118.827 118.827 0 0 1 10.721 19.887 113.52 113.52 0 0 1 6.612 21.656 117.75 117.75 0 0 1 2.238 22.858"/></g></svg>