<svg class="squiggle" preserveAspectRatio="none" viewBox="0 0 1329 28" xmlns="http://www.w3.org/2000/svg"><path d="M1329 3.74V28H0V5.144v11.279a88.81 88.81 0 0 0 73.8 4.859l38.32-14.588a100 100 0 0 1 71.844.266l37.29 14.512a83.184 83.184 0 0 0 73.845-6.726 69.85 69.85 0 0 1 71.238-1.252l4.099 2.334a69.401 69.401 0 0 0 70.768-1.235 68.155 68.155 0 0 1 70.438-.668l1.39.821a88.81 88.81 0 0 0 76.768 6.536l38.321-14.588a100 100 0 0 1 71.844.266l37.29 14.512a83.184 83.184 0 0 0 73.845-6.726 69.85 69.85 0 0 1 71.238-1.252l4.099 2.334a69.401 69.401 0 0 0 70.768-1.235 68.155 68.155 0 0 1 70.438-.668l1.39.821a88.81 88.81 0 0 0 76.768 6.536l38.32-14.588a100 100 0 0 1 71.844.266l37.29 14.512a83.184 83.184 0 0 0 73.845-6.726c.627-.387 1.26-.764 1.9-1.131V3.74z" fill="#FFF" fill-rule="evenodd"/></svg>