<svg class="squiggle mb-6" viewBox="0 0 1329 35" xmlns="http://www.w3.org/2000/svg"><path d="M1329 0v20.615a69.86 69.86 0 0 0-1.9 1.131 83.184 83.184 0 0 1-73.845 6.726l-37.29-14.512a100 100 0 0 0-71.844-.266l-38.32 14.588a88.81 88.81 0 0 1-76.768-6.536l-1.39-.821a68.155 68.155 0 0 0-70.438.668 69.401 69.401 0 0 1-70.768 1.235l-4.099-2.334a69.85 69.85 0 0 0-71.238 1.252 83.184 83.184 0 0 1-73.845 6.726l-37.29-14.512a100 100 0 0 0-71.844-.266L589.8 28.282a88.81 88.81 0 0 1-76.768-6.536l-1.39-.821a68.155 68.155 0 0 0-70.438.668 69.401 69.401 0 0 1-70.768 1.235l-4.099-2.334a69.85 69.85 0 0 0-71.238 1.252 83.184 83.184 0 0 1-73.845 6.726l-37.29-14.512a100 100 0 0 0-71.844-.266L73.8 28.282A88.81 88.81 0 0 1 0 23.423V0h1329z" fill-rule="evenodd"/></svg>