<svg width="373" height="195" class="umbrella" viewBox="0 0 373 195" xmlns="http://www.w3.org/2000/svg"><title>GitHub Field Day Logo</title><g fill="none" fill-rule="evenodd"><path d="M198.724 40.655c3.252.45 6.477 1.063 9.666 1.828a58.1 58.1 0 0 1 9.324 3.117c6.342 2.766 12.062 6.297 17.206 10.585 5.126 4.297 9.504 9.162 13.125 14.585a67.473 67.473 0 0 1 8.369 17.737c1.973 6.405 2.954 13.062 2.954 19.98a9.7 9.7 0 0 1-.747 3.802 9.495 9.495 0 0 1-2.063 3.081 10.334 10.334 0 0 1-3.09 2.108 9.406 9.406 0 0 1-3.802.775c-1.45 0-2.684-.235-3.693-.712a11.611 11.611 0 0 1-2.757-1.793 23.694 23.694 0 0 1-2.27-2.378 22.365 22.365 0 0 0-2.234-2.369 11.312 11.312 0 0 0-2.64-1.802c-.981-.468-2.143-.711-3.494-.711-1.36 0-2.523.243-3.496.711a11.365 11.365 0 0 0-2.648 1.802c-.793.72-1.54 1.513-2.234 2.37a21.083 21.083 0 0 1-2.28 2.377c-.81.721-1.72 1.316-2.738 1.793-1.027.477-2.252.712-3.702.712-1.307 0-2.442-.207-3.396-.64-.946-.432-1.937-1.027-2.982-1.802a41.923 41.923 0 0 0-3.928-2.774 29.757 29.757 0 0 0-4.279-2.18v61.059c0 2.666-.513 5.18-1.567 7.53-1.036 2.343-2.442 4.406-4.234 6.171-1.793 1.766-3.865 3.162-6.243 4.207a18.531 18.531 0 0 1-7.495 1.559c-2.667 0-5.18-.523-7.531-1.559-2.342-1.045-4.405-2.441-6.17-4.207-1.766-1.765-3.163-3.828-4.208-6.17-1.036-2.352-1.558-4.865-1.558-7.531v-1.568c0-1.802.28-3.495.847-5.08.567-1.586 1.369-2.964 2.405-4.135 1.045-1.18 2.324-2.117 3.837-2.82 1.514-.703 3.225-1.054 5.126-1.054.901 0 1.694.1 2.37.28v-46.682a30.855 30.855 0 0 0-4.208 2.18 41.923 41.923 0 0 0-3.927 2.774c-1.045.775-2.054 1.37-3.027 1.802-.964.433-2.108.64-3.423.64-1.45 0-2.685-.235-3.694-.712a11.379 11.379 0 0 1-2.747-1.793 21.083 21.083 0 0 1-2.28-2.378 22.365 22.365 0 0 0-2.233-2.369 11.365 11.365 0 0 0-2.649-1.802c-.973-.468-2.135-.711-3.486-.711-1.36 0-2.531.243-3.495.711a11.365 11.365 0 0 0-2.649 1.802c-.793.72-1.54 1.513-2.234 2.37a21.083 21.083 0 0 1-2.279 2.377c-.81.721-1.72 1.316-2.748 1.793-1.017.477-2.225.712-3.63.712a9.926 9.926 0 0 1-3.828-.739 9.301 9.301 0 0 1-3.117-2.072 9.58 9.58 0 0 1-2.072-3.117c-.505-1.198-.748-2.477-.748-3.837 0-5.883.703-11.531 2.099-16.963 1.405-5.423 3.396-10.53 5.982-15.323a66.555 66.555 0 0 1 9.323-13.234 68.855 68.855 0 0 1 12.17-10.648 68.284 68.284 0 0 1 14.585-7.594c5.243-1.99 10.747-3.35 16.485-4.071a11.8 11.8 0 0 1 4.342-3.901c1.766-.928 3.658-1.387 5.703-1.387 2.027 0 3.927.459 5.702 1.387a11.843 11.843 0 0 1 4.333 3.9" fill="#29134E"/><path d="M188.686 45.127c.676 0 1.252.234 1.72.712a2.36 2.36 0 0 1 .721 1.73V171.91a9.19 9.19 0 0 1-.774 3.73 9.758 9.758 0 0 1-2.144 3.09c-.901.882-1.946 1.585-3.117 2.098a9.111 9.111 0 0 1-3.73.784 9.122 9.122 0 0 1-3.738-.784 9.89 9.89 0 0 1-3.081-2.099 10.112 10.112 0 0 1-2.108-3.09 9.197 9.197 0 0 1-.784-3.729v-1.558c0-.901.153-1.685.442-2.343.297-.657.973-.981 2.008-.981.676 0 1.19.17 1.523.504.342.342.576.748.712 1.225.144.478.189 1.01.17 1.595a51.46 51.46 0 0 0-.026 1.558c0 1.315.477 2.441 1.46 3.396.963.946 2.107 1.424 3.422 1.424 1.306 0 2.45-.478 3.414-1.424.982-.955 1.469-2.08 1.469-3.396V47.568c0-.675.234-1.252.711-1.73.469-.477 1.054-.71 1.73-.71" fill="#D48D00"/><path d="M186.24 50.014l-24.35 58.474a25.543 25.543 0 0 0-7.386-6.955c-2.955-1.829-6.18-2.747-9.711-2.747-1.766 0-3.45.252-5.081.747a19.806 19.806 0 0 0-4.585 2.036 23.062 23.062 0 0 0-4 3.054 25.475 25.475 0 0 0-3.36 3.865c0-5.378.694-10.576 2.072-15.567 1.378-5 3.342-9.657 5.9-13.98a59.94 59.94 0 0 1 9.153-11.802 59.323 59.323 0 0 1 11.81-9.152c4.315-2.559 8.981-4.523 13.972-5.91 4.99-1.37 10.18-2.063 15.566-2.063" fill="#B392F0"/><path d="M215.482 108.49l-24.358-58.474c5.387 0 10.576.685 15.566 2.063 5 1.387 9.675 3.351 14.008 5.91a58.783 58.783 0 0 1 11.846 9.152 58.436 58.436 0 0 1 9.117 11.801c2.54 4.324 4.504 8.981 5.91 13.972 1.396 5 2.098 10.188 2.098 15.575a25.423 25.423 0 0 0-7.387-6.954c-2.954-1.838-6.18-2.748-9.71-2.748-3.523 0-6.766.91-9.703 2.748a25.423 25.423 0 0 0-7.387 6.954" fill="#6F42C1"/><path d="M215.482 108.49c-3.666-3.208-7.837-5.63-12.521-7.261-4.676-1.63-9.441-2.442-14.279-2.442-4.837 0-9.593.811-14.278 2.442-4.675 1.63-8.855 4.053-12.512 7.26 0-5.522.522-10.945 1.594-16.287a80.888 80.888 0 0 1 4.711-15.431 84.021 84.021 0 0 1 7.64-14.17c3-4.504 6.468-8.702 10.404-12.585h4.883a80.251 80.251 0 0 1 10.413 12.585 84.67 84.67 0 0 1 7.64 14.17 80.888 80.888 0 0 1 4.71 15.431 83.902 83.902 0 0 1 1.595 16.287" fill="#8A63D2"/><g fill-rule="nonzero" class="lines"><path d="M90.69 51H47.5a1.5 1.5 0 0 1 0-3h43.19a1.5 1.5 0 0 1 0 3zM282.33 83H265.5a1.5 1.5 0 0 1 0-3h16.83a1.5 1.5 0 0 1 0 3zM331.33 83H304.5a1.5 1.5 0 0 1 0-3h26.82a1.5 1.5 0 1 1 .01 3zM299.33 97H270.5a1.5 1.5 0 0 1 0-3h28.82a1.5 1.5 0 1 1 .01 3zM298.492 47H233.5a1.5 1.5 0 0 1 0-3h64.992a1.5 1.5 0 0 1 0 3zM298.35 67H255.5a1.5 1.5 0 0 1 0-3h42.85a1.5 1.5 0 0 1 0 3zM369.88 67H313.5a1.5 1.5 0 0 1 0-3h56.37a1.5 1.5 0 1 1 .01 3zM278.7 30h-17.2a1.5 1.5 0 0 1 0-3h17.2a1.5 1.5 0 0 1 0 3zM232.77 30H208.5a1.5 1.5 0 0 1 0-3h24.27a1.5 1.5 0 0 1 0 3zM251.5 30h-9a1.5 1.5 0 0 1 0-3h9a1.5 1.5 0 0 1 0 3zM102.5 40h-9a1.5 1.5 0 0 1 0-3h9a1.5 1.5 0 0 1 0 3zM82.5 30a1.5 1.5 0 0 1 0-3h84.75a1.5 1.5 0 0 1 0 3H82.5zM125.75 51H103.5a1.5 1.5 0 0 1 0-3h22.27a1.5 1.5 0 0 1-.02 3zM167.57 5h-9.07a1.5 1.5 0 0 1 0-3h9.07a1.5 1.5 0 0 1 0 3zM218.78 5H183.5a1.5 1.5 0 0 1 0-3h35.28a1.5 1.5 0 0 1 0 3zM230.75 19H215.5a1.5 1.5 0 0 1 0-3h15.2a1.5 1.5 0 0 1 .05 3zM75.34 71H33.5a1.5 1.5 0 0 1 0-3h41.84a1.5 1.5 0 0 1 0 3zM109.14 97H86.5a1.5 1.5 0 0 1 0-3h22.64a1.5 1.5 0 0 1 0 3zM112.5 83h-46a1.5 1.5 0 0 1 0-3h46a1.5 1.5 0 0 1 0 3zM124.05 62H90.5a1.5 1.5 0 0 1 0-3h33.55a1.5 1.5 0 0 1 0 3zM202.36 19H136.5a1.5 1.5 0 0 1 0-3h65.86a1.5 1.5 0 0 1 0 3z"/><path d="M304.51 52.02a6.51 6.51 0 1 1 6.51-6.51 6.52 6.52 0 0 1-6.51 6.51zm0-10a3.51 3.51 0 1 0 3.51 3.51 3.51 3.51 0 0 0-3.51-3.56v.05zM298.51 88.02a6.51 6.51 0 1 1 6.51-6.51 6.52 6.52 0 0 1-6.51 6.51zm0-10a3.51 3.51 0 1 0 3.51 3.51 3.51 3.51 0 0 0-3.51-3.56v.05zM85.499 82.153a1.5 1.5 0 0 1-1.06-2.56l20.26-20.19a1.5 1.5 0 0 1 2.12 2.12l-20.22 20.22a1.5 1.5 0 0 1-1.1.41zM81.51 102.02a6.51 6.51 0 1 1 0-13.02 6.51 6.51 0 0 1 0 13.02zm0-10a3.51 3.51 0 1 0 3.51 3.51 3.51 3.51 0 0 0-3.51-3.52v.01zM117.165 50.56c8.953-11.028 20.79-17.712 35.576-20.079a1.5 1.5 0 1 0-.474-2.962c-15.506 2.482-28.006 9.54-37.432 21.15a1.5 1.5 0 1 0 2.33 1.89zM276.814 63.726c-7.502-9.292-16.305-15.79-26.394-19.466a1.5 1.5 0 1 0-1.027 2.818c9.56 3.485 17.918 9.654 25.086 18.532a1.5 1.5 0 0 0 2.335-1.884z"/></g></g></svg>