<svg width="1429" height="319" viewBox="0 0 1429 319" xmlns="http://www.w3.org/2000/svg"><g fill-rule="nonzero" fill="#673CB6"><path d="M419.26 106.93v51.7a1.5 1.5 0 0 1-3 0v-51.7a1.5 1.5 0 0 1 3 0zM419.26 170.26v31.33a1.5 1.5 0 0 1-3 0v-31.33a1.5 1.5 0 0 1 3 0zM419.26 250.01v28.34a1.5 1.5 0 0 1-3 0v-28.34a1.5 1.5 0 0 1 3 0zM419.26-.98v24.91a1.5 1.5 0 0 1-3 0V-1.01a1.5 1.5 0 0 1 3 .03zM439.56 156.93v15.6a1.5 1.5 0 0 1-3 0v-15.6a1.5 1.5 0 0 1 3 0zM378.43 70.36v63.57a1.5 1.5 0 0 1-3 0V70.35a1.5 1.5 0 0 1 3 .01zM378.43 249.67v15.44a1.5 1.5 0 0 1-3 0v-15.44a1.5 1.5 0 0 1 3 0zM378.43 44.35v12.89a1.5 1.5 0 0 1-3 0V44.35a1.5 1.5 0 0 1 3 0zM398.73 92.84v29.09a1.5 1.5 0 0 1-3 0V92.84a1.5 1.5 0 0 1 3 0zM358.09 122.52v30.62a1.5 1.5 0 0 1-3 0v-30.62a1.5 1.5 0 0 1 3 0zM480.39 112.86v9.07a1.5 1.5 0 0 1-3 0v-9.07a1.5 1.5 0 0 1 3 0zM480.39 61.01v35.28a1.5 1.5 0 0 1-3 0V61.01a1.5 1.5 0 0 1 3 0zM500.69 154.55v23.81a1.5 1.5 0 0 1-3 0v-23.81a1.5 1.5 0 0 1 3 0zM500.69 26.58v34.26a1.5 1.5 0 0 1-3 0V26.58a1.5 1.5 0 0 1 3 0zM459.86 67.26v18.43a1.5 1.5 0 0 1-3 0V67.26a1.5 1.5 0 0 1 3 0zM561.85 185.51v12.42a1.5 1.5 0 0 1-3 0v-12.42a1.5 1.5 0 0 1 3 0zM561.85 148.17v24.17a1.5 1.5 0 0 1-3 0v-24.17a1.5 1.5 0 0 1 3 0zM561.85 107.68v14.25a1.5 1.5 0 0 1-3 0v-14.25a1.5 1.5 0 0 1 3 0zM561.85 55.35v37.49a1.5 1.5 0 0 1-3 0V55.35a1.5 1.5 0 1 1 3 0zM561.85-.01v20.13a1.5 1.5 0 0 1-3 0V-.01a1.5 1.5 0 0 1 3 0zM521.02 43.43V85.7a1.5 1.5 0 0 1-3 0V43.43a1.5 1.5 0 0 1 3 0zM541.32 93.84v28.68a1.5 1.5 0 0 1-3 0V93.84a1.5 1.5 0 0 1 3 0zM541.32 67.26v10.55a1.5 1.5 0 0 1-3 0V67.26a1.5 1.5 0 0 1 3 0zM623.36 164.82v27.11a1.5 1.5 0 0 1-3 0v-27.08a1.5 1.5 0 0 1 3-.03zM623.36 122.52v26.22a1.5 1.5 0 0 1-3 0v-26.22a1.5 1.5 0 0 1 3 0zM623.36 55.35v49.43a1.5 1.5 0 0 1-3 0V55.35a1.5 1.5 0 1 1 3 0zM643.28 182.29v29a1.5 1.5 0 0 1-3 0v-29a1.5 1.5 0 0 1 3 0zM663.54 2.46v24.22a1.5 1.5 0 0 1-3 0V2.46a1.5 1.5 0 0 1 3 0zM602.45 139.68v15.25a1.5 1.5 0 0 1-3 0v-15.2a1.5 1.5 0 0 1 3-.05zM602.45 94.5v28.87a1.5 1.5 0 0 1-3 0V94.5a1.5 1.5 0 0 1 3 0zM602.45-2.81v29.5a1.5 1.5 0 0 1-3 0v-29.5a1.5 1.5 0 0 1 3 0zM704.41 105.43v42.4a1.5 1.5 0 0 1-3 0v-42.4a1.5 1.5 0 0 1 3 0zM704.41 70.22v20.71a1.5 1.5 0 0 1-3 0V70.25a1.5 1.5 0 1 1 3-.03zM724.71 3.87v22.82a1.5 1.5 0 0 1-3 0V3.87a1.5 1.5 0 0 1 3 0zM663.58 56.35V86.7a1.5 1.5 0 0 1-3 0V56.35a1.5 1.5 0 0 1 3 0zM683.88 124.35v9.19a1.5 1.5 0 0 1-3 0v-9.19a1.5 1.5 0 0 1 3 0zM683.88 90.93v21.12a1.5 1.5 0 0 1-3 0V90.93a1.5 1.5 0 0 1 3 0zM683.88 2.71v23.87a1.5 1.5 0 0 1-3 0V2.71a1.5 1.5 0 0 1 3 0zM765.54 56.05v51.34a1.5 1.5 0 0 1-3 0V56.05a1.5 1.5 0 0 1 3 0zM785.84 51.53v27.12a1.5 1.5 0 0 1-3 0V51.53a1.5 1.5 0 0 1 3 0zM745.01 93.09v41.84a1.5 1.5 0 0 1-3 0V93.09a1.5 1.5 0 0 1 3 0zM745.01 56.05v12.64a1.5 1.5 0 0 1-3 0V56.05a1.5 1.5 0 0 1 3 0zM847 124.25v46a1.5 1.5 0 0 1-3 0v-46a1.5 1.5 0 0 1 3 0zM847 53v57.61a1.5 1.5 0 0 1-3 0V53a1.5 1.5 0 0 1 3 0zM867.3 167.7v56.59a1.5 1.5 0 0 1-3 0V167.7a1.5 1.5 0 0 1 3 0zM867.3 122.29v29.64a1.5 1.5 0 0 1-3 0v-29.62a1.5 1.5 0 0 1 3-.02zM806.17 145.51v14.12a1.5 1.5 0 0 1-3 0v-14.12a1.5 1.5 0 0 1 3 0zM806.17 1.1v22.83a1.5 1.5 0 0 1-3 0V1.07a1.5 1.5 0 1 1 3 .03zM826.47 120.32v33.55a1.5 1.5 0 0 1-3 0v-33.55a1.5 1.5 0 0 1 3 0zM826.47 85.7v14.33a1.5 1.5 0 0 1-3 0V85.7a1.5 1.5 0 0 1 3 0zM928.43 236.41v16.52a1.5 1.5 0 0 1-3 0v-16.5a1.5 1.5 0 1 1 3-.02zM928.43 37.64v35.58a1.5 1.5 0 0 1-3 0V37.64a1.5 1.5 0 0 1 3 0zM928.43 3.58v19.19a1.5 1.5 0 0 1-3 0V3.58a1.5 1.5 0 0 1 3 0zM948.73 89.36v13.44a1.5 1.5 0 0 1-3 0V89.36a1.5 1.5 0 0 1 3 0zM948.73 118.61v26a1.5 1.5 0 0 1-3 0v-26a1.5 1.5 0 0 1 3 0zM948.73 294.79v21.79a1.5 1.5 0 0 1-3 0v-21.79a1.5 1.5 0 1 1 3 0zM948.73 227.15v50.52a1.5 1.5 0 0 1-3 0v-50.52a1.5 1.5 0 0 1 3 0zM969.04 58.68v65.94a1.5 1.5 0 0 1-3 0V58.68a1.5 1.5 0 0 1 3 0zM969.04 259.43v36.65a1.5 1.5 0 0 1-3 0v-36.65a1.5 1.5 0 0 1 3 0zM887.6 170.26v13.29a1.5 1.5 0 0 1-3 0v-13.29a1.5 1.5 0 0 1 3 0zM948.73 171.57v30.42a1.5 1.5 0 0 1-3 0v-30.42c-.011-9.539-7.741-17.269-17.28-17.28h-23.58c-11.196-.011-20.269-9.084-20.28-20.28V2.71a1.5 1.5 0 0 1 3 0v131.3c.011 9.539 7.741 17.269 17.28 17.28h23.58c11.196.011 20.269 9.084 20.28 20.28z"/><path d="M622.67 86.7a1.5 1.5 0 0 1-.44 1.06l-20.22 20.17a1.5 1.5 0 0 1-2.12-2.12l20.22-20.22a1.5 1.5 0 0 1 2.56 1.11zM418.95 128.55a1.5 1.5 0 0 1-2.56 1.06l-20.22-20.22a1.5 1.5 0 0 1 2.12-2.12l20.22 20.22a1.5 1.5 0 0 1 .44 1.06zM846.84 152.13a1.5 1.5 0 0 1-2.56 1.06l-20.19-20.26a1.5 1.5 0 0 1 2.12-2.12l20.22 20.22a1.5 1.5 0 0 1 .41 1.1zM464.87 62.25a6.51 6.51 0 1 1-6.51-6.51 6.52 6.52 0 0 1 6.51 6.51zm-10 0a3.51 3.51 0 1 0 3.51-3.51 3.51 3.51 0 0 0-3.53 3.51h.02zM750.02 73.72a6.51 6.51 0 1 1-13.02 0 6.51 6.51 0 0 1 13.02 0zm-10 0a3.51 3.51 0 1 0 3.51-3.51 3.51 3.51 0 0 0-3.52 3.51h.01zM953.74 207.16a6.51 6.51 0 1 1-6.51-6.51 6.52 6.52 0 0 1 6.51 6.51zm-10 0a3.51 3.51 0 1 0 3.51-3.51 3.51 3.51 0 0 0-3.52 3.51h.01zM521.02 70.93a1.5 1.5 0 0 1-3 0c-.011-10.334-8.386-18.709-18.72-18.72a1.5 1.5 0 0 1 0-3c11.989.017 21.703 9.731 21.72 21.72zM376.86 114.14a1.5 1.5 0 0 1-1.5 1.5c-11.177-.028-20.225-9.093-20.23-20.27v-94a1.5 1.5 0 0 1 3 0v94a17.28 17.28 0 0 0 17.24 17.32 1.5 1.5 0 0 1 1.49 1.45zM785.84 2.46v20.47c-.011 11.196-9.084 20.269-20.28 20.28h-82.25a1.5 1.5 0 0 1 0-3h82.25c9.539-.011 17.269-7.741 17.28-17.28V2.45a1.5 1.5 0 1 1 3 .01zM499.9 134.79a1.5 1.5 0 0 1-1.5 1.5c-9.522.022-17.23 7.748-17.23 17.27l.08 61.82c-.016 11.172-9.058 20.231-20.23 20.27l-128.52.28a1.5 1.5 0 0 1 0-3l128.52-.19c9.518-.033 17.219-7.752 17.23-17.27l-.08-61.82c.005-11.177 9.053-20.242 20.23-20.27a1.5 1.5 0 0 1 1.5 1.5v-.09z"/><path d="M691.88 41.72a1.5 1.5 0 0 1-1.5 1.5h-91.11c-9.537.011-17.264 7.743-17.27 17.28v55.64c-.011 11.196-9.084 20.269-20.28 20.28h-7.26l-97.67-.18c-11.177-.028-20.225-9.093-20.23-20.27l.08-120.54a1.5 1.5 0 0 1 3 0l-.08 120.54c0 9.528 7.712 17.258 17.24 17.28l104.93.2c9.537-.011 17.264-7.743 17.27-17.28V60.53c.011-11.192 9.078-20.263 20.27-20.28h91.11a1.5 1.5 0 0 1 1.5 1.47z"/><g><path d="M181.47 78.96a1.5 1.5 0 0 0-3 0c-.011 10.334-8.386 18.709-18.72 18.72a1.5 1.5 0 0 0 0 3c11.989-.017 21.703-9.731 21.72-21.72zM59.41 107.51v-26.8a1.5 1.5 0 0 0-3 0v26.81a1.5 1.5 0 0 0 3-.01zM79.71 138.82v-8.86a1.5 1.5 0 0 0-3 0v8.86a1.5 1.5 0 0 0 3 0zM18.58 30.64v-45.57a1.5 1.5 0 0 0-3 0v45.6a1.5 1.5 0 1 0 3-.03zM18.58 161.07v-17.2a1.5 1.5 0 0 0-3 0v17.2a1.5 1.5 0 0 0 3 0zM38.88 55.46V35.07a1.5 1.5 0 0 0-3 0v20.39a1.5 1.5 0 0 0 3 0zM38.88 107.51V69.65a1.5 1.5 0 0 0-3 0v37.86a1.5 1.5 0 0 0 3 0zM38.88 158.73v-24.27a1.5 1.5 0 0 0-3 0v24.27a1.5 1.5 0 0 0 3 0zM38.88 177.26v-9a1.5 1.5 0 0 0-3 0v9a1.5 1.5 0 0 0 3 0zM120.54 96.81V56.58a1.5 1.5 0 0 0-3 0v40.23a1.5 1.5 0 0 0 3 0zM120.43 39.41v-38a1.5 1.5 0 0 0-3 0v38a1.5 1.5 0 0 0 3 0zM140.84 47.34V35.7a1.5 1.5 0 0 0-3 0v11.64a1.5 1.5 0 0 0 3 0zM140.84 183.3v-23.06a1.5 1.5 0 0 0-3 0v23.07a1.5 1.5 0 0 0 3-.01zM100.01 57.98V41.73a1.5 1.5 0 0 0-3 0v16.25a1.5 1.5 0 0 0 3 0zM100.01 81.64v-8.76a1.5 1.5 0 0 0-3 0v8.76a1.5 1.5 0 0 0 3 0zM335.43 174.62a1.5 1.5 0 0 0-1.5-1.5h-13c-9.518-.033-17.219-7.752-17.23-17.27l.08-81.4a20.28 20.28 0 0 0-20.18-20.38l-57-.19h-5.72c-10.402.006-18.847-8.408-18.88-18.81V4.3a1.5 1.5 0 0 0-3 0v30.77c.017 12.06 9.79 21.833 21.85 21.85h5.71l57 .19c9.524.022 17.235 7.746 17.24 17.27l-.08 81.4c.005 11.188 9.062 20.262 20.25 20.29h13a1.5 1.5 0 0 0 1.5-1.5l-.04.05zM202 89.87V61.14a1.5 1.5 0 0 0-3 0v28.73a1.5 1.5 0 0 0 3 0zM202 168.22v-63a1.5 1.5 0 0 0-3 0v63a1.5 1.5 0 0 0 3 0z"/><path d="M222.3 41.73V28.26a1.5 1.5 0 0 0-3 0v13.47a1.5 1.5 0 0 0 3 0zM161.17 127.62V87.44a1.5 1.5 0 0 0-3 0v40.18a1.5 1.5 0 0 0 3 0zM181.47 17.97v-32.9a1.5 1.5 0 0 0-3 0v32.9a1.5 1.5 0 0 0 3 0zM181.47 110.07V75.34a1.5 1.5 0 0 0-3 0v34.73a1.5 1.5 0 0 0 3 0zM181.47 130.87v-6.68a1.5 1.5 0 0 0-3 0v6.68a1.5 1.5 0 0 0 3 0zM263.09 135.85v-32.63a1.5 1.5 0 0 0-3 0v32.63a1.5 1.5 0 0 0 3 0zM263.09 161.94V148.4a1.5 1.5 0 0 0-3 0v13.54a1.5 1.5 0 0 0 3 0zM283.43 118.9V74.84a1.5 1.5 0 0 0-3 0v44.06a1.5 1.5 0 0 0 3 0zM242.6 11.62V-21.5a1.5 1.5 0 0 0-3 0v33.12a1.5 1.5 0 0 0 3 0zM242.6 108.07V88.46a1.5 1.5 0 0 0-3 0v19.61a1.5 1.5 0 0 0 3 0zM242.6 143.89v-22.11a1.5 1.5 0 0 0-3 0v22.11a1.5 1.5 0 0 0 3 0zM303.73 41.52V21.69a1.5 1.5 0 0 0-3 0v19.83a1.5 1.5 0 0 0 3 0zM324.04 249.17v-60.53a1.5 1.5 0 0 0-3 0v60.53a1.5 1.5 0 0 0 3 0zM324.04 160.71v-15.86a1.5 1.5 0 0 0-3 0v15.85a1.5 1.5 0 0 0 3 .01zM324.04 74.84v-72a1.5 1.5 0 0 0-3 0v72a1.5 1.5 0 0 0 3 0z"/><path d="M268.14 167.48a6.51 6.51 0 1 0-6.51 6.51 6.52 6.52 0 0 0 6.51-6.51zm-10 0a3.51 3.51 0 1 1 3.51 3.51 3.51 3.51 0 0 1-3.56-3.51h.05zM84.72 33.42a6.51 6.51 0 1 0-6.51 6.51 6.52 6.52 0 0 0 6.51-6.51zm-10 0a3.51 3.51 0 1 1 3.51 3.51 3.51 3.51 0 0 1-3.52-3.51h.01zM283.35 98.87a1.5 1.5 0 0 0-2.56-1.06l-20.22 20.26a1.5 1.5 0 1 0 2.12 2.12l20.22-20.22a1.5 1.5 0 0 0 .44-1.1z"/><path d="M79.71 100.45v-62a1.5 1.5 0 0 0-3 0v62a17 17 0 0 1-17.11 17.19l-44.1.22c-11.173.033-20.215 9.097-20.22 20.27V155c0 10.391-8.409 18.822-18.8 18.85a1.5 1.5 0 0 0 0 3c12.048-.028 21.8-9.802 21.8-21.85v-16.86c0-9.528 7.712-17.258 17.24-17.28l44.09-.22c11.12-.039 20.111-9.07 20.1-20.19zM181.47 79.14a1.5 1.5 0 0 0-3 0c-.05 10.296-8.424 18.608-18.72 18.58a1.5 1.5 0 0 0 0 3c11.95.022 21.665-9.63 21.72-21.58z"/></g><g><path d="M1265.45 21.25V.71a1.5 1.5 0 0 0-3 0v20.54c-.011 9.539-7.741 17.269-17.28 17.28h-64.24c-11.196.011-20.269 9.084-20.28 20.28v25.63c-.011 9.539-7.741 17.269-17.28 17.28H993.16a1.5 1.5 0 0 0 0 3h150.23c11.196-.011 20.269-9.084 20.28-20.28V58.8c.011-9.539 7.741-17.269 17.28-17.28h64.24c11.184-.022 20.243-9.086 20.26-20.27zM1082.26 200.65v-56.28a1.5 1.5 0 0 0-3 0v56.28a1.5 1.5 0 0 0 3 0z"/><path d="M1102.56 75.74V31.61a1.5 1.5 0 0 0-3 0v44.13a1.5 1.5 0 0 0 3 0zM1102.56 131.55V118.8a1.5 1.5 0 0 0-3 0v12.75a1.5 1.5 0 0 0 3 0zM1041.43 28.26v-43.19a1.5 1.5 0 0 0-3 0v43.19a1.5 1.5 0 0 0 3 0zM1041.43 66.55V44.37a1.5 1.5 0 0 0-3 0v22.18a1.5 1.5 0 0 0 3 0zM1041.43 157.69v-27.88a1.5 1.5 0 0 0-3 0v27.88a1.5 1.5 0 0 0 3 0zM1041.43 195.48v-19.51a1.5 1.5 0 0 0-3 0v19.51a1.5 1.5 0 0 0 3 0zM1061.73 54.12V38.61a1.5 1.5 0 0 0-3 0v15.51a1.5 1.5 0 0 0 3 0zM1143.39 87.45v-18.5a1.5 1.5 0 0 0-3 0v18.5a1.5 1.5 0 0 0 3 0zM1163.69 65.38V12.69a1.5 1.5 0 0 0-3 0v52.69a1.5 1.5 0 0 0 3 0zM1122.86 83.26V68.07a1.5 1.5 0 0 0-3 0v15.19a1.5 1.5 0 0 0 3 0zM1224.85 22.64v-38.57a1.5 1.5 0 0 0-3 0v38.6a1.5 1.5 0 1 0 3-.03zM1224.85 78.67v-22a1.5 1.5 0 0 0-3 0v22a1.5 1.5 0 0 0 3 0zM1224.85 172.15v-16.83a1.5 1.5 0 0 0-3 0v16.83a1.5 1.5 0 0 0 3 0zM1224.85 227.71v-38.83a1.5 1.5 0 0 0-3 0v38.82a1.5 1.5 0 0 0 3 .01zM1245.15 142.67v-23.32a1.5 1.5 0 0 0-3 0v23.32a1.5 1.5 0 0 0 3 0zM1184.02 104.91V89.18a1.5 1.5 0 0 0-3 0v15.73a1.5 1.5 0 0 0 3 0zM1184.02 168.63V123.3a1.5 1.5 0 0 0-3 0v45.33a1.5 1.5 0 1 0 3 0zM1184.02 206.76V183.3a1.5 1.5 0 0 0-3 0v23.46a1.5 1.5 0 1 0 3 0zM1204.32 115.16V56.62a1.5 1.5 0 0 0-3 0v58.54a1.5 1.5 0 0 0 3 0zM1204.32 187.29v-42.85a1.5 1.5 0 0 0-3 0v42.85a1.5 1.5 0 0 0 3 0zM1204.32 258.78V202.4a1.5 1.5 0 0 0-3 0v56.37a1.5 1.5 0 0 0 3 .01zM1204.32 12.86V-8.42a1.5 1.5 0 0 0-3 0v21.28a1.5 1.5 0 0 0 3 0zM1285.98 51.54V15.37a1.5 1.5 0 0 0-3 0v36.17a1.5 1.5 0 0 0 3 0zM1285.98 98.07V67.3a1.5 1.5 0 0 0-3 0v30.77a1.5 1.5 0 0 0 3 0zM1285.98 195.74v-35.08a1.5 1.5 0 0 0-3 0v35.08a1.5 1.5 0 0 0 3 0zM1265.45 71.68V47.85a1.5 1.5 0 0 0-3 0v23.83a1.5 1.5 0 0 0 3 0zM1265.45 94.32v-11a1.5 1.5 0 0 0-3 0v11a1.5 1.5 0 0 0 3 0zM1367.41 107.51v-26.8a1.5 1.5 0 0 0-3 0v26.81a1.5 1.5 0 0 0 3-.01zM1387.71 138.82v-8.86a1.5 1.5 0 0 0-3 0v8.86a1.5 1.5 0 0 0 3 0zM1326.58 30.64v-45.57a1.5 1.5 0 0 0-3 0v45.6a1.5 1.5 0 1 0 3-.03zM1326.58 161.07v-17.2a1.5 1.5 0 0 0-3 0v17.2a1.5 1.5 0 0 0 3 0zM1346.88 55.46V35.07a1.5 1.5 0 0 0-3 0v20.39a1.5 1.5 0 0 0 3 0zM1346.88 107.51V69.65a1.5 1.5 0 0 0-3 0v37.86a1.5 1.5 0 0 0 3 0zM1346.88 158.73v-24.27a1.5 1.5 0 0 0-3 0v24.27a1.5 1.5 0 0 0 3 0zM1346.88 177.26v-9a1.5 1.5 0 0 0-3 0v9a1.5 1.5 0 0 0 3 0zM1428.54 96.81V56.58a1.5 1.5 0 0 0-3 0v40.23a1.5 1.5 0 0 0 3 0zM1428.43 39.41v-38a1.5 1.5 0 0 0-3 0v38a1.5 1.5 0 0 0 3 0zM1408.01 57.98V41.73a1.5 1.5 0 0 0-3 0v16.25a1.5 1.5 0 0 0 3 0zM1408.01 81.64v-8.76a1.5 1.5 0 0 0-3 0v8.76a1.5 1.5 0 0 0 3 0z"/><path d="M1061.84 123.65c-.006-12.102-9.808-21.913-21.91-21.93a1.5 1.5 0 0 0 0 3c10.44.011 18.899 8.47 18.91 18.91v91.84c-.011 9.539-7.741 17.269-17.28 17.28h-50a1.5 1.5 0 0 0 0 3h50c11.196-.011 20.269-9.084 20.28-20.28V123.65zM1392.72 33.42a6.51 6.51 0 1 0-6.51 6.51 6.52 6.52 0 0 0 6.51-6.51zm-10 0a3.51 3.51 0 1 1 3.51 3.51 3.51 3.51 0 0 1-3.52-3.51h.01zM1209.33 120.17a6.51 6.51 0 1 0-6.51 6.51 6.52 6.52 0 0 0 6.51-6.51zm-10 0a3.51 3.51 0 1 1 3.51 3.51 3.51 3.51 0 0 1-3.53-3.51h.02zM1285.89 81.48a1.5 1.5 0 0 0-.44-1.06l-20.36-20.4a1.5 1.5 0 0 0-2.12 2.12l20.4 20.4a1.5 1.5 0 0 0 2.52-1.06z"/><path d="M1387.71 100.45v-62a1.5 1.5 0 0 0-3 0v62a17 17 0 0 1-17.11 17.19l-44.1.22c-11.173.033-20.215 9.097-20.22 20.27V155c0 10.391-8.409 18.822-18.8 18.85a1.5 1.5 0 0 0 0 3c12.048-.028 21.8-9.802 21.8-21.85v-16.86c0-9.528 7.712-17.258 17.24-17.28l44.09-.22c11.12-.039 20.111-9.07 20.1-20.19zM1204.24 166.47a1.5 1.5 0 0 0-1.5-1.5c-10.334-.011-18.709-8.386-18.72-18.72a1.5 1.5 0 0 0-3 0c.017 11.989 9.731 21.703 21.72 21.72a1.5 1.5 0 0 0 1.5-1.5z"/></g></g></svg>