<?xml version="1.0" standalone="no"?>
<!DOCTYPE svg PUBLIC "-//W3C//DTD SVG 20010904//EN"
 "http://www.w3.org/TR/2001/REC-SVG-20010904/DTD/svg10.dtd">
<svg version="1.0" xmlns="http://www.w3.org/2000/svg"
 width="260.000000pt" height="260.000000pt" viewBox="0 0 260.000000 260.000000"
 preserveAspectRatio="xMidYMid meet">
<metadata>
Created by potrace 1.11, written by Peter Selinger 2001-2013
</metadata>
<g transform="translate(0.000000,260.000000) scale(0.100000,-0.100000)"
fill="#000000" stroke="none">
<path d="M1244 2393 c-12 -2 -39 -19 -60 -37 -27 -23 -54 -35 -88 -40 -278
-42 -557 -249 -690 -513 -31 -62 -73 -186 -82 -239 -3 -22 -9 -57 -12 -79 -6
-37 -7 -65 -3 -138 2 -43 58 -97 108 -104 61 -8 86 2 135 53 44 48 108 84 137
79 9 -2 21 -4 28 -4 7 -1 42 -29 78 -63 58 -54 71 -62 114 -66 44 -4 54 0 120
42 39 26 76 49 84 51 10 4 12 -60 13 -319 l0 -324 -49 -6 c-103 -12 -158 -86
-153 -207 11 -282 374 -366 511 -118 l30 54 3 463 3 462 32 -17 c18 -9 54 -31
81 -50 81 -55 138 -45 217 39 74 80 140 80 223 0 60 -59 84 -72 126 -72 55 0
101 29 122 78 17 37 19 58 14 124 -34 450 -373 813 -823 881 -13 2 -36 15 -51
30 -41 40 -100 54 -168 40z"/>
</g>
</svg>
